<?xml version="1.0" encoding="utf-8"?>
<!-- Generator: Adobe Illustrator 26.4.1, SVG Export Plug-In . SVG Version: 6.00 Build 0)  -->
<svg version="1.1" id="Layer_1" xmlns="http://www.w3.org/2000/svg" xmlns:xlink="http://www.w3.org/1999/xlink" x="0px" y="0px"
	 viewBox="0 0 399.9 399.9" style="enable-background:new 0 0 399.9 399.9;" xml:space="preserve">
<style type="text/css">
	.st0{fill:#79769A;}
	.st1{fill:#F07A3F;}
</style>
<g>
	<path class="st0" d="M303.8,158c10.7-10.7,20.9-20.8,30.9-30.9c12.4-12.4,28.7-15.5,43.3-8.2c21,10.5,26.9,38.4,11.1,55.8
		c-12.4,13.6-25.8,26.2-38.7,39.2c-14.8,14.9-29.7,29.8-44.6,44.6c-1.5,1.5-2.1,3-2.1,5.1c0.1,32.7-0.3,65.3,0.2,98
		c0.2,18.6-13.1,34.7-31.3,37.1c-1.7,0.2-3.5,0.3-5.2,0.3c-77,0-154.1,0-231.1,0C15.9,399,0,383.1,0,362.5C0,254.2,0,145.8,0,37.4
		C0,16.9,15.8,1,36.4,1c66.1,0,132.2,0,198.4,0c10.3,0,19.1,3.7,26.3,11c10.3,10.3,20.6,20.7,31,30.9c8.1,7.9,12,17.4,11.9,28.7
		c-0.2,27.4-0.1,54.9-0.1,82.3C303.8,155,303.8,156.1,303.8,158z M208.3,26.8c-1.6,0-2.6,0-3.6,0c-55.3,0-110.6,0-165.9,0
		c-9.1,0-12.9,3.7-12.9,12.7c0,106.9,0,213.9,0,320.8c0,8.9,3.8,12.6,12.6,12.6c75.3,0,150.6,0,225.9,0c0.8,0,1.6,0,2.4,0
		c6.9-0.2,11-4.4,11-11.3c0-24.1,0-48.2,0-72.2c0-0.8-0.1-1.7-0.2-2.6c-1.9,0.8-3.5,1.5-5.1,2c-15.7,5.3-31.5,10.5-47.2,15.8
		c-5.3,1.8-10.2,1-14.1-2.9c-3.9-4-4.7-8.8-2.9-14.1c5-14.7,10-29.5,14.7-44.3c1.5-4.8,4-8.7,7.6-12.2c15.1-14.9,30-30,45.1-45
		c1.5-1.5,2.1-3,2.1-5.1c-0.1-27,0-54.1,0-81.1c0-1.1,0-2.2,0-3.5c-1.6,0-2.8,0-4.1,0c-16.8,0-33.7,0-50.5,0
		c-9.9,0-15.1-5.1-15.1-15.1c0-16.8,0-33.7,0-50.5C208.3,29.6,208.3,28.4,208.3,26.8z M285.9,240.6c17.7-17.6,35.5-35.3,52.9-52.7
		c-4.5-4.5-9.1-9.1-13.2-13.3c-17.6,17.5-35.4,35.2-52.9,52.6C277,231.7,281.6,236.3,285.9,240.6z M278.9,70.1
		c-1.6-3-2.5-5.8-4.3-7.7c-10.6-10.9-21.4-21.6-32.2-32.3c-2.1-2.1-4.6-3.3-7.6-3c0,14.5,0,28.8,0,43
		C249.2,70.1,263.5,70.1,278.9,70.1z M344.4,154.5c4.9,5,9.5,9.6,14.3,14.5c2.4-2.5,4.9-5.1,7.5-7.7c1.1-1.1,2.2-2.1,3.2-3.3
		c3.6-4.1,3.5-10-0.3-13.8c-3.8-3.9-9.7-4.2-13.8-0.5C351.5,147.2,347.8,151.1,344.4,154.5z M267.2,260.2
		c-4.8-4.8-9.5-9.4-14.1-14.1c-3.1,2.3-5.3,5.5-6.4,9.6c-1.4,5.3-3.4,10.4-5.4,16.2c5.8-1.9,11-3.8,16.2-5.3
		C261.6,265.6,264.9,263.5,267.2,260.2z"/>
	<path class="st1" d="M140.6,116.7c26.9,0,53.9,0,80.8,0c5.8,0,10.6,3.5,12.4,8.7c1.8,5.4,0,11.2-4.6,14.7c-2.9,2.2-6.3,2.5-9.9,2.5
		c-31.3,0-62.6,0-94,0c-21.3,0-42.6,0-64,0c-2.4,0-5-0.2-7.2-1.1c-5.8-2.2-8.8-8.4-7.6-14.8c1.1-5.8,6.5-10.1,12.8-10.1
		C86.5,116.7,113.5,116.7,140.6,116.7z"/>
	<path class="st1" d="M117.2,235.4c-19.1,0-38.1,0.1-57.2,0c-10.8,0-17.2-10.7-11.9-19.7c2.8-4.8,7.3-6.5,12.7-6.5
		c35.3,0,70.6,0,105.9,0c2.7,0,5.3-0.1,8,0c7.9,0.2,13.5,5.7,13.5,13.2c0,7.5-5.7,13-13.6,13C155.4,235.5,136.3,235.4,117.2,235.4z"
		/>
	<path class="st1" d="M117.2,163.1c19.2,0,38.3-0.1,57.5,0c9.5,0,15.7,8.7,12.6,17.4c-1.8,5-6.5,8.5-11.9,8.5
		c-38.8,0-77.7,0-116.5,0c-7,0-12.5-5.7-12.5-12.8c-0.1-7.3,5.2-13,12.5-13.1C78.3,163,97.8,163.1,117.2,163.1
		C117.2,163.1,117.2,163.1,117.2,163.1z"/>
	<path class="st1" d="M117,281.6c-19.2,0-38.3,0-57.5,0c-5.7,0-9.9-2.6-12.1-7.7c-2.1-4.8-1.5-9.6,2-13.7c2.4-2.8,5.6-4.5,9.3-4.5
		c39,0,77.9,0,116.9,0c6.8,0,12.3,5.8,12.4,12.6c0.1,7.3-5.1,13.2-12.3,13.2C156.2,281.7,136.6,281.6,117,281.6
		C117,281.6,117,281.6,117,281.6z"/>
	<path class="st1" d="M186.8,326.7c11.3,0,22.6,0,34,0c7.9,0,13.7,5.5,13.7,12.9c0,7.2-5.6,13-13.3,13c-23.1,0.1-46.1,0.1-69.2,0
		c-6.9,0-12.2-4.7-13-11c-0.8-6.8,3.2-12.8,9.8-14.5c1.3-0.3,2.6-0.3,3.9-0.3C164.1,326.7,175.5,326.7,186.8,326.7z"/>
</g>
</svg>
