<?xml version="1.0" encoding="utf-8"?>
<!-- Generator: Adobe Illustrator 26.4.1, SVG Export Plug-In . SVG Version: 6.00 Build 0)  -->
<svg version="1.1" id="Layer_1" xmlns="http://www.w3.org/2000/svg" xmlns:xlink="http://www.w3.org/1999/xlink" x="0px" y="0px"
	 viewBox="0 0 399.9 399.9" style="enable-background:new 0 0 399.9 399.9;" xml:space="preserve">
<style type="text/css">
	.st0{fill:#79769A;}
	.st1{fill:#F07A3F;}
</style>
<g>
	<path class="st0" d="M387.4,105.4H280.2c0,0,0,0,0,0h-52.1c-0.1,0-0.2,0-0.4,0c-0.2,0-0.5,0-0.8,0h-54.9h-52.4c0,0,0,0,0,0H12.5
		C5.6,105.4,0,111,0,117.9V205c0,6.9,5.6,12.5,12.5,12.5h19.9V356c0,6.9,5.6,12.5,12.5,12.5H355c6.9,0,12.5-5.6,12.5-12.5V217.5
		h19.9c6.9,0,12.5-5.6,12.5-12.5v-87.1C399.9,111,394.4,105.4,387.4,105.4z M44.9,192.5H25v-62.1h97.7v62.1H44.9z M122.7,343.5H57.4
		v-126h65.3V343.5z M147.6,130.4h104.6v62.1H147.6V130.4z M252.3,343.5H147.7v-126h104.6V343.5z M342.5,343.5h-65.3v-126h65.3V343.5
		z M374.9,192.5H355h-77.8v-62.1h97.7V192.5z"/>
	<path class="st1" d="M139.3,89.8c-9.7-9.5-15.8-21.6-15.8-31.6c0-4.6,1.3-8.3,3.9-10.8c3.3-3.2,8.1-3.9,11.5-3.9
		c10.4,0,23,6,32.8,15.6c9.7,9.5,15.8,21.6,15.8,31.6c0,4.7-1.3,8.3-3.9,10.8c-3.3,3.2-8.1,3.9-11.5,3.9H227
		c-3.3-0.1-7.7-0.9-10.7-3.9c-2.6-2.5-3.9-6.1-3.9-10.8c0-10,6-22.1,15.8-31.6c9.8-9.6,22.4-15.6,32.8-15.6c3.4,0,8.2,0.7,11.5,3.9
		c2.6,2.5,3.9,6.1,3.9,10.8c0,10-6.1,22.1-15.8,31.6c-9.7,9.5-22.1,15.4-32.5,15.6h52.1c13.3-13.9,21.2-31.3,21.2-47.2
		c0-11.5-3.9-21.4-11.4-28.7c-7.4-7.2-17.4-11-28.9-11c-16.9,0-35.7,8.5-50.3,22.7c-4.1,4-7.7,8.4-10.8,13c-3.1-4.6-6.7-9-10.9-13
		c-14.5-14.2-33.3-22.7-50.3-22.7c-11.6,0-21.6,3.8-28.9,11c-7.5,7.3-11.4,17.2-11.4,28.7c0,15.8,7.9,33.2,21.2,47.2h52.4
		C161.7,105.4,149.1,99.4,139.3,89.8z"/>
</g>
</svg>
