<?xml version="1.0" encoding="UTF-8"?>
<svg xmlns="http://www.w3.org/2000/svg" version="1.1" viewBox="0 0 512 512">
  <defs>
    <style>
      .cls-1 {
        fill: #79769a;
      }

      .cls-2 {
        fill: #f07a3f;
      }
    </style>
  </defs>
  <!-- Generator: Adobe Illustrator 28.7.1, SVG Export Plug-In . SVG Version: 1.2.0 Build 142)  -->
  <g>
    <g id="Layer_1">
      <g>
        <path class="cls-1" d="M223.8,130.8L154.6,15.5c-5.8-9.6-16.2-15.5-27.4-15.5H16C3.1,0-4.5,14.6,2.9,25.2l111.3,159c29.7-27.8,67.5-46.8,109.6-53.4Z"/>
        <path class="cls-1" d="M496,0h-111.2c-11.2,0-21.7,5.9-27.4,15.5l-69.1,115.2c42,6.6,79.8,25.6,109.6,53.4L509.1,25.2c7.4-10.6-.2-25.2-13.1-25.2Z"/>
        <path class="cls-2" d="M256,160c-97.2,0-176,78.8-176,176s78.8,176,176,176,176-78.8,176-176-78.8-176-176-176ZM348.5,317.3l-37.9,37,9,52.2c1.6,9.4-8.3,16.5-16.6,12.1l-46.9-24.6-46.9,24.6c-8.4,4.5-18.2-2.7-16.7-12.1l9-52.2-37.9-37c-6.8-6.6-3.1-18.2,6.3-19.6l52.4-7.6,23.4-47.5c2.1-4.3,6.2-6.4,10.3-6.4s8.2,2.1,10.3,6.4l23.4,47.5,52.4,7.6c9.4,1.4,13.2,13,6.4,19.6Z"/>
      </g>
    </g>
  </g>
</svg>